<?xml version="1.0" encoding="UTF-8"?>
<svg xmlns="http://www.w3.org/2000/svg" width="135" height="45" viewBox="0 0 135 45" fill="none">
  <path d="M21.4922 0V27.2137H16.0275V24.9398C14.6093 26.6513 12.5555 27.5071 9.86589 27.5071C8.00763 27.5071 6.32053 27.0915 4.80458 26.2601C3.31308 25.4288 2.13944 24.2429 1.28367 22.7025C0.427889 21.1621 0 19.3772 0 17.3478C0 15.3184 0.427889 13.5335 1.28367 11.9931C2.13944 10.4527 3.31308 9.26684 4.80458 8.43552C6.32053 7.60419 8.00763 7.18853 9.86589 7.18853C12.3843 7.18853 14.3526 7.98318 15.7707 9.57248V0H21.4922ZM10.8561 22.8126C12.2987 22.8126 13.4968 22.3236 14.4504 21.3455C15.404 20.343 15.8808 19.0105 15.8808 17.3478C15.8808 15.6852 15.404 14.3648 14.4504 13.3868C13.4968 12.3843 12.2987 11.8831 10.8561 11.8831C9.3891 11.8831 8.17878 12.3843 7.2252 13.3868C6.27162 14.3648 5.79483 15.6852 5.79483 17.3478C5.79483 19.0105 6.27162 20.343 7.2252 21.3455C8.17878 22.3236 9.3891 22.8126 10.8561 22.8126Z" fill="url(#paint0_linear)"></path>
  <path d="M66.2616 7.18854C68.7067 7.18854 70.675 7.92206 72.1665 9.38911C73.6824 10.8562 74.4404 13.0323 74.4404 15.9175V27.2137H68.7189V16.7977C68.7189 15.2328 68.3766 14.0714 67.692 13.3135C67.0073 12.531 66.0171 12.1398 64.7212 12.1398C63.2786 12.1398 62.1294 12.5922 61.2736 13.4968C60.4179 14.3771 59.99 15.6974 59.99 17.4579V27.2137H54.2685V7.48195H59.7332V9.79254C60.4912 8.96122 61.4326 8.3255 62.5573 7.88538C63.682 7.42082 64.9168 7.18854 66.2616 7.18854Z" fill="url(#paint1_linear)"></path>
  <path d="M91.253 7.18854C93.698 7.18854 95.6663 7.92206 97.1578 9.38911C98.6738 10.8562 99.4317 13.0323 99.4317 15.9175V27.2137H93.7103V16.7977C93.7103 15.2328 93.3679 14.0714 92.6833 13.3135C91.9987 12.531 91.0085 12.1398 89.7126 12.1398C88.27 12.1398 87.1208 12.5922 86.265 13.4968C85.4092 14.3771 84.9813 15.6974 84.9813 17.4579V27.2137H79.2599V7.48195H84.7246V9.79254C85.4826 8.96122 86.4239 8.3255 87.5487 7.88538C88.6734 7.42082 89.9082 7.18854 91.253 7.18854Z" fill="url(#paint2_linear)"></path>
  <path d="M104.251 7.48195H109.973V27.2137H104.251V7.48195Z" fill="url(#paint3_linear)"></path>
  <path d="M134.941 7.48195V34.3289H129.22V25.1232C127.802 26.7125 125.833 27.5071 123.315 27.5071C121.457 27.5071 119.769 27.0915 118.253 26.2601C116.762 25.4288 115.588 24.243 114.733 22.7026C113.877 21.1622 113.449 19.3772 113.449 17.3478C113.449 15.3184 113.877 13.5335 114.733 11.9931C115.588 10.4527 116.762 9.26685 118.253 8.43553C119.769 7.6042 121.457 7.18854 123.315 7.18854C126.004 7.18854 128.058 8.04431 129.476 9.75587V7.48195H134.941ZM124.305 22.8126C125.748 22.8126 126.946 22.3236 127.899 21.3455C128.853 20.3431 129.33 19.0105 129.33 17.3478C129.33 15.6852 128.853 14.3648 127.899 13.3868C126.946 12.3843 125.748 11.8831 124.305 11.8831C122.838 11.8831 121.628 12.3843 120.674 13.3868C119.721 14.3648 119.244 15.6852 119.244 17.3478C119.244 19.0105 119.721 20.3431 120.674 21.3455C121.628 22.3236 122.838 22.8126 124.305 22.8126Z" fill="url(#paint4_linear)"></path>
  <path d="M63.0068 37.7657C63.0068 37.7966 62.9914 38.0125 62.9605 38.4136H56.6826C56.7957 38.9277 57.0631 39.3339 57.4847 39.6321C57.9063 39.9304 58.4307 40.0795 59.058 40.0795C59.4899 40.0795 59.8704 40.0178 60.1995 39.8944C60.5388 39.7607 60.8525 39.555 61.1404 39.2774L62.4207 40.6656C61.6391 41.5603 60.4977 42.0076 58.9963 42.0076C58.0605 42.0076 57.2327 41.8276 56.5129 41.4677C55.7931 41.0975 55.2378 40.5885 54.847 39.9406C54.4562 39.2928 54.2609 38.5575 54.2609 37.7349C54.2609 36.9225 54.4511 36.1924 54.8316 35.5445C55.2224 34.8864 55.7519 34.3774 56.4204 34.0175C57.0991 33.6473 57.8549 33.4622 58.6878 33.4622C59.5002 33.4622 60.2355 33.637 60.8936 33.9866C61.5517 34.3362 62.0659 34.8401 62.4361 35.4983C62.8166 36.1461 63.0068 36.9019 63.0068 37.7657ZM58.7032 35.2823C58.1582 35.2823 57.7006 35.4366 57.3304 35.745C56.9602 36.0535 56.734 36.4752 56.6517 37.0099H60.7393C60.6571 36.4854 60.4308 36.069 60.0606 35.7605C59.6904 35.4417 59.238 35.2823 58.7032 35.2823Z" fill="#E6234B"></path>
  <path d="M69.4985 33.4622C70.5269 33.4622 71.3547 33.7707 71.982 34.3877C72.6195 35.0047 72.9383 35.9199 72.9383 37.1333V41.8842H70.532V37.5035C70.532 36.8454 70.388 36.3569 70.1001 36.0381C69.8122 35.7091 69.3957 35.5445 68.8507 35.5445C68.244 35.5445 67.7607 35.7348 67.4007 36.1152C67.0408 36.4854 66.8609 37.0407 66.8609 37.7811V41.8842H64.4546V33.5856H66.7529V34.5573C67.0717 34.2077 67.4676 33.9403 67.9406 33.7552C68.4137 33.5598 68.933 33.4622 69.4985 33.4622Z" fill="#E6234B"></path>
  <path d="M83.1846 37.7657C83.1846 37.7966 83.1691 38.0125 83.1383 38.4136H76.8603C76.9734 38.9277 77.2408 39.3339 77.6624 39.6321C78.084 39.9304 78.6085 40.0795 79.2358 40.0795C79.6677 40.0795 80.0482 40.0178 80.3772 39.8944C80.7166 39.7607 81.0302 39.555 81.3181 39.2774L82.5984 40.6656C81.8169 41.5603 80.6754 42.0076 79.1741 42.0076C78.2383 42.0076 77.4105 41.8276 76.6907 41.4677C75.9708 41.0975 75.4155 40.5885 75.0248 39.9406C74.634 39.2928 74.4386 38.5575 74.4386 37.7349C74.4386 36.9225 74.6289 36.1924 75.0093 35.5445C75.4001 34.8864 75.9297 34.3774 76.5981 34.0175C77.2768 33.6473 78.0326 33.4622 78.8656 33.4622C79.678 33.4622 80.4132 33.637 81.0713 33.9866C81.7295 34.3362 82.2436 34.8401 82.6138 35.4983C82.9943 36.1461 83.1846 36.9019 83.1846 37.7657ZM78.881 35.2823C78.336 35.2823 77.8784 35.4366 77.5082 35.745C77.138 36.0535 76.9117 36.4752 76.8295 37.0099H80.9171C80.8348 36.4854 80.6086 36.069 80.2384 35.7605C79.8682 35.4417 79.4157 35.2823 78.881 35.2823Z" fill="#E6234B"></path>
  <path d="M86.9307 34.6807C87.2186 34.2797 87.6042 33.9763 88.0875 33.7707C88.5811 33.565 89.1467 33.4622 89.7843 33.4622V35.6833C89.5169 35.6628 89.3369 35.6525 89.2444 35.6525C88.5554 35.6525 88.0155 35.8479 87.6248 36.2386C87.234 36.6191 87.0386 37.195 87.0386 37.9662V41.8842H84.6323V33.5856H86.9307V34.6807Z" fill="#E6234B"></path>
  <path d="M99.5463 33.5856V40.4959C99.5463 42.0179 99.1504 43.149 98.3586 43.8894C97.5668 44.6298 96.4099 45 94.888 45C94.0859 45 93.3249 44.9023 92.6051 44.7069C91.8853 44.5116 91.2888 44.2288 90.8158 43.8586L91.7722 42.131C92.1218 42.4189 92.564 42.6451 93.0987 42.8097C93.6334 42.9845 94.1682 43.0719 94.7029 43.0719C95.5358 43.0719 96.1477 42.8817 96.5385 42.5012C96.9395 42.131 97.14 41.5654 97.14 40.8044V40.4497C96.5128 41.1386 95.6387 41.4831 94.5178 41.4831C93.7568 41.4831 93.0576 41.3186 92.42 40.9895C91.7927 40.6502 91.294 40.1771 90.9238 39.5704C90.5536 38.9637 90.3685 38.2645 90.3685 37.4726C90.3685 36.6808 90.5536 35.9816 90.9238 35.3749C91.294 34.7681 91.7927 34.3002 92.42 33.9712C93.0576 33.6318 93.7568 33.4622 94.5178 33.4622C95.7209 33.4622 96.6362 33.8581 97.2634 34.6499V33.5856H99.5463ZM94.996 39.5087C95.6335 39.5087 96.1528 39.3236 96.5539 38.9534C96.9652 38.573 97.1709 38.0794 97.1709 37.4726C97.1709 36.8659 96.9652 36.3775 96.5539 36.0073C96.1528 35.6268 95.6335 35.4366 94.996 35.4366C94.3584 35.4366 93.834 35.6268 93.4226 36.0073C93.0113 36.3775 92.8056 36.8659 92.8056 37.4726C92.8056 38.0794 93.0113 38.573 93.4226 38.9534C93.834 39.3236 94.3584 39.5087 94.996 39.5087Z" fill="#E6234B"></path>
  <path fill-rule="evenodd" clip-rule="evenodd" d="M31.1658 9.57407C30.9227 14.328 30.6129 20.385 35.3805 22.051C35.3805 21.0987 35.3616 20.1395 35.3426 19.1781C35.3022 17.1283 35.2616 15.0682 35.4037 13.0429C35.8065 7.29958 42.8809 3.885 47.4323 7.8133C49.4416 9.54749 49.822 12.0821 49.7924 14.5871C49.724 20.3667 46.3295 26.0462 40.2706 26.9411V35.1771H35.3805V26.9411C34.3106 26.8536 33.285 26.6204 32.292 26.2009C25.9318 23.5141 26.1464 15.8301 26.3195 9.62905C26.3465 8.66394 26.3724 7.73475 26.3724 6.86591H31.2625C31.2625 7.68135 31.2155 8.60038 31.1658 9.57407ZM45.0506 15.3593C44.6015 18.4956 43.2811 20.7888 40.2706 22.051V17.1609C40.2706 16.8232 40.2543 16.4619 40.2374 16.089C40.1788 14.7948 40.114 13.362 40.7051 12.2978C41.3956 11.0544 43.1926 10.5582 44.2808 11.6104C45.2529 12.55 45.2271 14.1262 45.0506 15.3593Z" fill="url(#paint5_linear)"></path>
  <path d="M103.28 33.632H100.682L104.044 39.8975L101.293 44.9405H103.891L109.851 33.632H107.406L105.419 37.6053L103.28 33.632Z" fill="#E6234B"></path>
  <defs>
    <linearGradient id="paint0_linear" x1="-1.24699" y1="17.4334" x2="22.1341" y2="17.4334" gradientUnits="userSpaceOnUse">
      <stop stop-color="#E6234B"></stop>
      <stop offset="1" stop-color="#E73040"></stop>
    </linearGradient>
    <linearGradient id="paint1_linear" x1="134.913" y1="14.0714" x2="54.9898" y2="14.0714" gradientUnits="userSpaceOnUse">
      <stop stop-color="#F07C01"></stop>
      <stop offset="1" stop-color="#EA482C"></stop>
    </linearGradient>
    <linearGradient id="paint2_linear" x1="134.913" y1="14.0714" x2="54.9898" y2="14.0714" gradientUnits="userSpaceOnUse">
      <stop stop-color="#F07C01"></stop>
      <stop offset="1" stop-color="#EA482C"></stop>
    </linearGradient>
    <linearGradient id="paint3_linear" x1="134.913" y1="14.0714" x2="54.9898" y2="14.0714" gradientUnits="userSpaceOnUse">
      <stop stop-color="#F07C01"></stop>
      <stop offset="1" stop-color="#EA482C"></stop>
    </linearGradient>
    <linearGradient id="paint4_linear" x1="134.913" y1="14.0714" x2="54.9898" y2="14.0714" gradientUnits="userSpaceOnUse">
      <stop stop-color="#F07C01"></stop>
      <stop offset="1" stop-color="#EA482C"></stop>
    </linearGradient>
    <linearGradient id="paint5_linear" x1="26.2601" y1="14.8355" x2="49.794" y2="14.5299" gradientUnits="userSpaceOnUse">
      <stop stop-color="#E8353C"></stop>
      <stop offset="1" stop-color="#EA4330"></stop>
    </linearGradient>
  </defs>
</svg>
